<svg width="247" height="48" viewBox="0 0 247 48" fill="none" xmlns="http://www.w3.org/2000/svg">
<g clip-path="url(#clip0_2_69)" filter="url(#filter0_d_2_69)">
<path d="M11.3906 27.1639H45.5631V32.0457C45.5631 33.3405 45.0488 34.5822 44.1333 35.4977C43.2177 36.4132 41.976 36.9275 40.6813 36.9275H16.2724C14.9776 36.9275 13.7359 36.4132 12.8204 35.4977C11.9049 34.5822 11.3906 33.3405 11.3906 32.0457V27.1639Z" stroke="#929292" stroke-width="4.68728" stroke-linecap="round" stroke-linejoin="round"/>
<path d="M21.1542 2.75513H35.7995C38.389 2.75513 40.8724 3.78379 42.7034 5.61481C44.5344 7.44584 45.5631 9.92924 45.5631 12.5187V17.4005H11.3906V12.5187C11.3906 9.92924 12.4192 7.44584 14.2503 5.61481C16.0813 3.78379 18.5647 2.75513 21.1542 2.75513Z" stroke="#929292" stroke-width="3.89088" stroke-linecap="round" stroke-linejoin="round"/>
<path d="M45.5632 17.4004H11.3906C8.6945 17.4004 6.50885 19.586 6.50885 22.2822C6.50885 24.9783 8.6945 27.164 11.3906 27.164H45.5632C48.2593 27.164 50.4449 24.9783 50.4449 22.2822C50.4449 19.586 48.2593 17.4004 45.5632 17.4004Z" stroke="#929292" stroke-width="3.89088" stroke-linecap="round" stroke-linejoin="round"/>
<path d="M86.4447 30.9923L80.7887 22.96C83.9346 21.8556 86.0096 19.1782 86.0096 15.7645C86.0096 11.2129 82.3282 8 77.3415 8H67V30.9923H71.9197V23.529H75.5677L80.8221 30.9923H86.4447ZM71.9197 12.5181H76.806C79.2491 12.5181 80.9225 13.7899 80.9225 15.7645C80.9225 17.7391 79.2491 19.0109 76.806 19.0109H71.9197V12.5181ZM97.7144 27.0766C95.6729 27.0766 94.1668 25.8048 93.5979 23.9306H106.081C106.081 17.4044 102.902 13.2879 97.4801 13.2879C92.4265 13.2879 88.5777 17.0697 88.5777 22.2907C88.5777 27.612 92.5938 31.3939 97.7479 31.3939C100.291 31.3939 103.27 30.3229 104.809 28.7165L101.697 25.537C100.76 26.4407 99.0866 27.0766 97.7144 27.0766ZM97.6809 17.6052C99.6555 17.6052 100.927 18.7096 101.396 20.4165H93.6648C94.3007 18.6762 95.8402 17.6052 97.6809 17.6052ZM115.879 31.3939C120.13 31.3939 122.907 29.2185 122.907 25.8048C122.907 22.0229 119.594 21.0189 116.616 20.2492C114.273 19.6133 113.57 19.3455 113.57 18.4084C113.57 17.806 114.407 17.3709 115.612 17.3709C117.084 17.3709 118.891 17.9399 120.464 18.9105L122.44 15.4298C120.532 14.158 118.089 13.2879 115.612 13.2879C111.528 13.2879 108.818 15.6306 108.851 18.9105C108.885 22.3242 111.63 23.2947 115.177 24.1649C116.951 24.6334 118.222 24.9681 118.222 26.0391C118.222 26.8088 117.286 27.3443 115.981 27.3443C113.671 27.3443 111.73 26.5076 110.191 25.4032L108.082 28.7834C110.157 30.4568 113.101 31.3939 115.879 31.3939ZM135.29 26.7084C134.955 27.0431 134.285 27.2774 133.617 27.2774C132.713 27.2774 131.977 26.4741 131.977 25.3362V17.6387H135.725V13.6895H131.977V8.93709H127.291V13.6895H124.915V17.6387H127.291V26.106C127.291 29.2185 129.432 31.3939 132.479 31.3939C133.883 31.3939 135.457 30.7915 136.461 29.8878L135.29 26.7084ZM147.253 13.2879C144.842 13.2879 142.467 13.9572 140.023 15.1955L141.663 18.4419C143.036 17.7391 144.542 17.2036 146.148 17.2036C148.993 17.2036 150.131 18.81 150.131 20.6508V20.9854C148.658 20.4165 147.119 20.1153 145.713 20.1153C141.697 20.1153 138.517 22.458 138.517 25.8717C138.517 29.185 141.362 31.3939 145.044 31.3939C146.918 31.3939 148.892 30.6576 150.131 29.252V30.9923H154.85V20.6508C154.85 16.1326 151.771 13.2879 147.253 13.2879ZM146.148 28.0137C144.475 28.0137 143.236 27.1435 143.236 25.7379C143.236 24.3322 144.641 23.2947 146.415 23.2947C147.754 23.2947 149.026 23.529 150.131 23.9306V25.537C149.796 27.1435 148.022 28.0137 146.148 28.0137ZM170.447 13.6895V24.031L170.413 23.9306C170.413 25.8048 168.841 27.2774 166.799 27.2774C164.858 27.2774 163.52 25.8048 163.52 23.6629V13.6895H158.801V24.7004C158.801 28.6161 161.478 31.3939 165.226 31.3939C167.469 31.3939 169.41 30.3899 170.447 28.8169V30.9923H175.333V13.6895H170.447ZM184.411 16.9024V13.6895H179.525V30.9923H184.411V22.7258C184.411 19.4794 186.721 17.4044 190.336 17.4044V13.2879C187.692 13.2879 185.549 14.6601 184.411 16.9024ZM200.885 13.2879C198.475 13.2879 196.1 13.9572 193.657 15.1955L195.297 18.4419C196.669 17.7391 198.174 17.2036 199.781 17.2036C202.626 17.2036 203.764 18.81 203.764 20.6508V20.9854C202.29 20.4165 200.752 20.1153 199.346 20.1153C195.329 20.1153 192.15 22.458 192.15 25.8717C192.15 29.185 194.994 31.3939 198.676 31.3939C200.55 31.3939 202.525 30.6576 203.764 29.252V30.9923H208.482V20.6508C208.482 16.1326 205.404 13.2879 200.885 13.2879ZM199.781 28.0137C198.107 28.0137 196.87 27.1435 196.87 25.7379C196.87 24.3322 198.275 23.2947 200.049 23.2947C201.388 23.2947 202.66 23.529 203.764 23.9306V25.537C203.428 27.1435 201.654 28.0137 199.781 28.0137ZM222.607 13.2879C220.365 13.2879 218.424 14.2919 217.387 15.8649V13.6895H212.501V30.9923H217.387V20.6508L217.421 20.7512C217.421 18.877 218.993 17.4044 221.035 17.4044C222.975 17.4044 224.314 18.877 224.314 21.0189V30.9923H229.034V19.9814C229.034 16.0657 226.355 13.2879 222.607 13.2879ZM242.262 26.7084C241.928 27.0431 241.258 27.2774 240.589 27.2774C239.684 27.2774 238.949 26.4741 238.949 25.3362V17.6387H242.697V13.6895H238.949V8.93709H234.262V13.6895H231.887V17.6387H234.262V26.106C234.262 29.2185 236.404 31.3939 239.451 31.3939C240.857 31.3939 242.43 30.7915 243.434 29.8878L242.262 26.7084Z" fill="#929292"/>
</g>
<defs>
<filter id="filter0_d_2_69" x="0" y="0" width="247" height="48" filterUnits="userSpaceOnUse" color-interpolation-filters="sRGB">
<feFlood flood-opacity="0" result="BackgroundImageFix"/>
<feColorMatrix in="SourceAlpha" type="matrix" values="0 0 0 0 0 0 0 0 0 0 0 0 0 0 0 0 0 0 127 0" result="hardAlpha"/>
<feOffset dy="4"/>
<feGaussianBlur stdDeviation="2"/>
<feComposite in2="hardAlpha" operator="out"/>
<feColorMatrix type="matrix" values="0 0 0 0 0 0 0 0 0 0 0 0 0 0 0 0 0 0 0.25 0"/>
<feBlend mode="normal" in2="BackgroundImageFix" result="effect1_dropShadow_2_69"/>
<feBlend mode="normal" in="SourceGraphic" in2="effect1_dropShadow_2_69" result="shape"/>
</filter>
<clipPath id="clip0_2_69">
<rect width="239" height="40" fill="white" transform="translate(4)"/>
</clipPath>
</defs>
</svg>
