<svg width="247" height="48" fill="none" xmlns="http://www.w3.org/2000/svg"><g clip-path="url(#clip0_2_69)" filter="url(#filter0_d_2_69)"><path d="M11.39 27.164h34.173v4.882a4.882 4.882 0 01-4.882 4.882H16.272a4.882 4.882 0 01-4.881-4.882v-4.882z" stroke="#929292" stroke-width="4.687" stroke-linecap="round" stroke-linejoin="round"/><path d="M21.154 2.755H35.8a9.764 9.764 0 019.763 9.764V17.4H11.391v-4.882a9.763 9.763 0 019.763-9.764zM45.563 17.4H11.391a4.882 4.882 0 100 9.764h34.172a4.882 4.882 0 000-9.764z" stroke="#929292" stroke-width="3.891" stroke-linecap="round" stroke-linejoin="round"/><path d="M86.445 30.992l-5.656-8.032c3.146-1.104 5.22-3.782 5.22-7.196C86.01 11.213 82.33 8 77.342 8H67v22.992h4.92V23.53h3.648l5.254 7.463h5.623zM71.92 12.518h4.886c2.443 0 4.117 1.272 4.117 3.246 0 1.975-1.674 3.247-4.117 3.247H71.92v-6.493zm25.794 14.559c-2.041 0-3.547-1.272-4.116-3.146h12.483c0-6.527-3.179-10.643-8.6-10.643-5.054 0-8.903 3.782-8.903 9.003 0 5.321 4.016 9.103 9.17 9.103 2.543 0 5.522-1.071 7.061-2.677l-3.112-3.18c-.937.904-2.61 1.54-3.983 1.54zm-.033-9.472c1.975 0 3.246 1.105 3.715 2.811h-7.731c.636-1.74 2.175-2.81 4.016-2.81zm18.198 13.789c4.251 0 7.028-2.175 7.028-5.59 0-3.781-3.313-4.785-6.291-5.555-2.343-.636-3.046-.903-3.046-1.84 0-.603.837-1.038 2.042-1.038 1.472 0 3.279.569 4.852 1.54l1.976-3.481c-1.908-1.272-4.351-2.142-6.828-2.142-4.084 0-6.794 2.343-6.761 5.622.034 3.414 2.779 4.385 6.326 5.255 1.774.468 3.045.803 3.045 1.874 0 .77-.936 1.305-2.241 1.305-2.31 0-4.251-.836-5.79-1.94l-2.109 3.38c2.075 1.673 5.019 2.61 7.797 2.61zm19.411-4.686c-.335.335-1.005.57-1.673.57-.904 0-1.64-.804-1.64-1.942V17.64h3.748v-3.95h-3.748V8.938h-4.686v4.753h-2.376v3.949h2.376v8.467c0 3.112 2.141 5.288 5.188 5.288 1.404 0 2.978-.602 3.982-1.506l-1.171-3.18zm11.963-13.42c-2.411 0-4.786.67-7.23 1.907l1.64 3.247c1.373-.703 2.879-1.238 4.485-1.238 2.845 0 3.983 1.606 3.983 3.447v.334c-1.473-.569-3.012-.87-4.418-.87-4.016 0-7.196 2.343-7.196 5.757 0 3.313 2.845 5.522 6.527 5.522 1.874 0 3.848-.736 5.087-2.142v1.74h4.719V20.651c0-4.518-3.079-7.363-7.597-7.363zm-1.105 14.726c-1.673 0-2.912-.87-2.912-2.276 0-1.406 1.405-2.443 3.179-2.443 1.339 0 2.611.234 3.716.636v1.606c-.335 1.607-2.109 2.477-3.983 2.477zm24.299-14.324v10.34l-.034-.1c0 1.874-1.572 3.346-3.614 3.346-1.941 0-3.279-1.472-3.279-3.614V13.69h-4.719V24.7c0 3.916 2.677 6.694 6.425 6.694 2.243 0 4.184-1.004 5.221-2.577v2.175h4.886V13.69h-4.886zm13.964 3.212V13.69h-4.886v17.303h4.886v-8.266c0-3.247 2.31-5.322 5.925-5.322v-4.116c-2.644 0-4.787 1.372-5.925 3.614zm16.474-3.614c-2.41 0-4.785.67-7.228 1.907l1.64 3.247c1.372-.703 2.877-1.238 4.484-1.238 2.845 0 3.983 1.606 3.983 3.447v.334c-1.474-.569-3.012-.87-4.418-.87-4.017 0-7.196 2.343-7.196 5.757 0 3.313 2.844 5.522 6.526 5.522 1.874 0 3.849-.736 5.088-2.142v1.74h4.718V20.651c0-4.518-3.078-7.363-7.597-7.363zm-1.104 14.726c-1.674 0-2.911-.87-2.911-2.276 0-1.406 1.405-2.443 3.179-2.443 1.339 0 2.611.234 3.715.636v1.606c-.336 1.607-2.11 2.477-3.983 2.477zm22.826-14.726c-2.242 0-4.183 1.004-5.22 2.577V13.69h-4.886v17.302h4.886V20.651l.034.1c0-1.874 1.572-3.347 3.614-3.347 1.94 0 3.279 1.473 3.279 3.615v9.973h4.72v-11.01c0-3.916-2.679-6.694-6.427-6.694zm19.655 13.42c-.334.335-1.004.57-1.673.57-.905 0-1.64-.804-1.64-1.942V17.64h3.748v-3.95h-3.748V8.938h-4.687v4.753h-2.375v3.949h2.375v8.467c0 3.112 2.142 5.288 5.189 5.288 1.406 0 2.979-.602 3.983-1.506l-1.172-3.18z" fill="#929292"/></g><defs><clipPath id="clip0_2_69"><path fill="#fff" transform="translate(4)" d="M0 0h239v40H0z"/></clipPath><filter id="filter0_d_2_69" x="0" y="0" width="247" height="48" filterUnits="userSpaceOnUse" color-interpolation-filters="sRGB"><feFlood flood-opacity="0" result="BackgroundImageFix"/><feColorMatrix in="SourceAlpha" values="0 0 0 0 0 0 0 0 0 0 0 0 0 0 0 0 0 0 127 0" result="hardAlpha"/><feOffset dy="4"/><feGaussianBlur stdDeviation="2"/><feComposite in2="hardAlpha" operator="out"/><feColorMatrix values="0 0 0 0 0 0 0 0 0 0 0 0 0 0 0 0 0 0 0.25 0"/><feBlend in2="BackgroundImageFix" result="effect1_dropShadow_2_69"/><feBlend in="SourceGraphic" in2="effect1_dropShadow_2_69" result="shape"/></filter></defs></svg>